<svg width="18" height="22" viewBox="0 0 18 22" fill="none" xmlns="http://www.w3.org/2000/svg">
<path fill-rule="evenodd" clip-rule="evenodd" d="M2.29209 3.58052C2.01022 3.83042 2 3.97447 2 4C2 4.02553 2.01022 4.16958 2.29209 4.41948C2.57279 4.66834 3.03602 4.93815 3.69427 5.18499C5.0034 5.67591 6.87903 6 9 6C11.121 6 12.9966 5.67591 14.3057 5.18499C14.964 4.93815 15.4272 4.66834 15.7079 4.41948C15.9898 4.16958 16 4.02553 16 4C16 3.97447 15.9898 3.83042 15.7079 3.58052C15.4272 3.33166 14.964 3.06185 14.3057 2.81501C12.9966 2.32409 11.121 2 9 2C6.87903 2 5.0034 2.32409 3.69427 2.81501C3.03602 3.06185 2.57279 3.33166 2.29209 3.58052ZM16 6.61619C15.6909 6.77981 15.3574 6.92662 15.008 7.05765C13.4217 7.65251 11.2973 8 9 8C6.70269 8 4.57833 7.65251 2.99202 7.05765C2.64262 6.92662 2.3091 6.77981 2 6.61619V8.6666C2 8.69213 2.01022 8.83618 2.29209 9.0861C2.57279 9.3349 3.03602 9.6047 3.69427 9.8516C5.0034 10.3425 6.87903 10.6666 9 10.6666C11.121 10.6666 12.9966 10.3425 14.3057 9.8516C14.964 9.6047 15.4272 9.3349 15.7079 9.0861C15.9898 8.83618 16 8.69213 16 8.6666V6.61619ZM18 4C18 3.19711 17.5625 2.55194 17.0347 2.08401C16.5058 1.61504 15.7974 1.2384 15.008 0.94235C13.4217 0.34749 11.2973 0 9 0C6.70269 0 4.57833 0.34749 2.99202 0.94235C2.20256 1.2384 1.49422 1.61504 0.96527 2.08401C0.43749 2.55194 0 3.19711 0 4V18C0 18.8029 0.43749 19.4481 0.96527 19.916C1.49422 20.385 2.20256 20.7616 2.99202 21.0576C4.57833 21.6525 6.70269 22 9 22C11.2973 22 13.4217 21.6525 15.008 21.0576C15.7974 20.7616 16.5058 20.385 17.0347 19.916C17.5625 19.4481 18 18.8029 18 18V4ZM16 11.2828C15.6909 11.4464 15.3574 11.5932 15.008 11.7242C13.4217 12.3191 11.2973 12.6666 9 12.6666C6.70269 12.6666 4.57833 12.3191 2.99202 11.7242C2.64262 11.5932 2.3091 11.4464 2 11.2828V13.33C2 13.3555 2.01022 13.4996 2.29209 13.7495C2.57279 13.9983 3.03602 14.2681 3.69427 14.515C5.0034 15.0059 6.87903 15.33 9 15.33C11.121 15.33 12.9966 15.0059 14.3057 14.515C14.964 14.2681 15.4272 13.9983 15.7079 13.7495C15.9898 13.4996 16 13.3555 16 13.33V11.2828ZM16 15.9462C15.6909 16.1098 15.3574 16.2566 15.008 16.3876C13.4217 16.9825 11.2973 17.33 9 17.33C6.70269 17.33 4.57833 16.9825 2.99202 16.3876C2.64262 16.2566 2.3091 16.1098 2 15.9462V18C2 18.0255 2.01022 18.1696 2.29209 18.4195C2.57279 18.6683 3.03602 18.9381 3.69427 19.185C5.0034 19.6759 6.87903 20 9 20C11.121 20 12.9966 19.6759 14.3057 19.185C14.964 18.9381 15.4272 18.6683 15.7079 18.4195C15.9898 18.1696 16 18.0255 16 18V15.9462Z" fill="#999999"/>
</svg>
